<?xml version="1.0" encoding="utf-8"?>
<!-- Generator: Adobe Illustrator 18.0.0, SVG Export Plug-In . SVG Version: 6.00 Build 0)  -->
<!DOCTYPE svg PUBLIC "-//W3C//DTD SVG 1.1//EN" "http://www.w3.org/Graphics/SVG/1.1/DTD/svg11.dtd">
<svg version="1.1" id="Vectores" xmlns="http://www.w3.org/2000/svg" xmlns:xlink="http://www.w3.org/1999/xlink" x="0px" y="0px"
	 viewBox="0 0 167.4 113.3" enable-background="new 0 0 167.4 113.3" xml:space="preserve">
<g>
	<g>
		<g>
			<path fill="#E6274C" d="M90.4,56.6c0,16.9-14.3,30.9-31.2,30.9S28,73.6,28,56.6s14.2-30.9,31.2-30.9
				C76.1,25.8,90.4,39.7,90.4,56.6z M31.9,56.6c0,14.8,12.4,27.3,27.4,27.3c14.9,0,27.4-12.5,27.4-27.3c0-14.8-12.4-27.3-27.4-27.3
				C44.2,29.4,31.9,41.8,31.9,56.6z"/>
		</g>
		<g>
			<polygon fill="#E6274C" points="71.6,61.7 45.4,61.7 45.4,56.4 47.7,56.4 47.7,59.5 69.4,59.5 69.4,56.4 71.6,56.4 			"/>
		</g>
		<g>
			<circle fill="#E6274C" cx="53.4" cy="53" r="1.5"/>
		</g>
		<g>
			<circle fill="#E6274C" cx="62.2" cy="53" r="1.5"/>
		</g>
	</g>
	<g>
		<g>
			<path fill="#007096" d="M139.4,56.6c0,16.9-14.3,30.9-31.2,30.9S77,73.6,77,56.6s14.2-30.9,31.2-30.9
				C125.1,25.8,139.4,39.7,139.4,56.6z M80.8,56.6c0,14.8,12.4,27.3,27.4,27.3c14.9,0,27.4-12.5,27.4-27.3
				c0-14.8-12.5-27.3-27.4-27.3C93.2,29.4,80.8,41.8,80.8,56.6z"/>
		</g>
		<g>
			<polygon fill="#007096" points="121.7,64 119.5,64 119.5,60.9 97.8,60.9 97.8,64 95.6,64 95.6,58.7 121.7,58.7 			"/>
		</g>
		<g>
			<circle fill="#007096" cx="103.6" cy="53" r="1.5"/>
		</g>
		<g>
			<circle fill="#007096" cx="112.5" cy="53" r="1.5"/>
		</g>
	</g>
	<g>
		<path fill="#E6274C" d="M86.6,56.6c0-14.8-12.4-27.3-27.4-27.3v-3.6c16.9,0,31.2,14,31.2,30.9H86.6z"/>
	</g>
</g>
</svg>
