<?xml version="1.0" encoding="utf-8"?>
<!-- Generator: Adobe Illustrator 17.1.0, SVG Export Plug-In . SVG Version: 6.00 Build 0)  -->
<!DOCTYPE svg PUBLIC "-//W3C//DTD SVG 1.1//EN" "http://www.w3.org/Graphics/SVG/1.1/DTD/svg11.dtd">
<svg version="1.1" xmlns="http://www.w3.org/2000/svg" xmlns:xlink="http://www.w3.org/1999/xlink" x="0px" y="0px"
	 viewBox="0 0 144.4 102.9" enable-background="new 0 0 144.4 102.9" xml:space="preserve">
<g id="Muestra">
</g>
<g id="Layer_1">
	<g>
		<path fill="#E6274C" d="M0,0v30.7c0,39.8,32.4,72.2,72.2,72.2c39.8,0,72.2-32.4,72.2-72.2V0L0,0z M135.4,30.7
			c0,34.9-28.4,63.2-63.2,63.2C37.4,93.9,9,65.6,9,30.7V9l126.4,0V30.7z"/>
		<path fill="#E6274C" d="M72.2,86.2c12.6,0,22.7-10.2,22.7-22.7v-8.8l-45.5,0v8.8C49.5,76,59.7,86.2,72.2,86.2z"/>
		<circle fill="#E6274C" cx="33.4" cy="28" r="8.2"/>
		<circle fill="#E6274C" cx="110.1" cy="28" r="8.2"/>
	</g>
</g>
</svg>
