<?xml version="1.0" encoding="utf-8"?>
<!-- Generator: Adobe Illustrator 17.1.0, SVG Export Plug-In . SVG Version: 6.00 Build 0)  -->
<!DOCTYPE svg PUBLIC "-//W3C//DTD SVG 1.1//EN" "http://www.w3.org/Graphics/SVG/1.1/DTD/svg11.dtd">
<svg version="1.1" id="Layer_1" xmlns="http://www.w3.org/2000/svg" xmlns:xlink="http://www.w3.org/1999/xlink" x="0px" y="0px"
	 viewBox="0 0 1209.7 342" enable-background="new 0 0 1209.7 342" xml:space="preserve">
<g>
	<path fill="#FF5000" d="M113.6,14.6L22.7,333.5c-1.5,6.1-6.1,8.5-10.8,8.5C6.2,342,0,337.7,0,330.8c0-1.2,0-2.3,0.3-3.5L91.3,8.5
		C93.2,2.3,97.4,0,102,0c6.2,0,12,4.2,12,11.1C114,12.2,114,13.5,113.6,14.6"/>
	<path fill="#FF5000" d="M223.8,304.2c-41.6,0-75.1-33.5-75.1-75.1V11.6c0-7.8,5.8-11.6,11.5-11.6c5.8,0,11.6,3.8,11.6,11.6v92
		c13.5-12.7,31.9-20.8,52-20.8c41.5,0,75.1,33.5,75.1,75.1v71.3C298.9,270.8,265.3,304.2,223.8,304.2 M275.7,157.9
		c0-28.8-23.1-52-52-52c-28.9,0-52,23.2-52,52v71.3c0,28.9,23.1,52,52,52c28.9,0,52-23.1,52-52V157.9z"/>
	<path fill="#FF5000" d="M502.2,102.4L429,293.1c-2.3,6.1-6.5,9.2-10.8,9.2c-4.2,0-8.5-3.1-10.8-9.2l-73.2-190.7
		c-0.4-1.5-0.8-3.1-0.8-4.6c0-6.5,6.2-11.2,11.9-11.2c4.2,0,8.5,2.4,10.4,7.3l62.4,162.5l62.4-162.5c2.2-5,6.2-7.3,10.4-7.3
		c6.1,0,12.3,4.7,12.3,11.2C503.4,99.3,503,100.9,502.2,102.4"/>
	<path fill="#FF5000" d="M553.4,300.4c-5.8,0-11.6-3.9-11.6-11.6V98.1c0-7.7,5.8-11.5,11.6-11.5c5.8,0,11.6,3.8,11.6,11.5v190.7
		C565,296.5,559.2,300.4,553.4,300.4"/>
	<path fill="#FF5000" d="M672.1,304.2c-19.6,0-46.6-8.8-58.6-26.6c-1.5-2.3-2.3-4.6-2.3-6.5c0-6.6,5.7-11.6,11.9-11.6
		c3.4,0,6.6,1.2,9.3,5c0,0,0.8,0.8,1.9,2c9.6,10,23.9,14.6,37.7,14.6c30,0,48.6-17.4,48.6-37.7c0-54.7-108.3-34.6-108.3-105.5
		c0-36.6,32-55.1,62.4-55.1c21.6,0,47,11.5,59,30.4c1.1,2,1.9,4.3,1.9,6.6c0,6.2-6.2,11.1-11.9,11.1c-3.5,0-7-1.5-9.7-5.4
		c0,0-0.7-0.8-1.9-2.7c-9.2-10.4-22.7-17-37.4-17c-23,0-39.3,13.1-39.3,32c0,47.8,108.2,30,108.2,105.5
		C743.7,280.7,710.2,304.2,672.1,304.2"/>
	<path fill="#FF5000" d="M801.5,300.4c-5.8,0-11.5-3.9-11.5-11.6V98.1c0-7.7,5.7-11.5,11.5-11.5c5.8,0,11.5,3.8,11.5,11.5v190.7
		C813,296.5,807.3,300.4,801.5,300.4"/>
	<path fill="#FF5000" d="M938.2,304.2c-41.6,0-75.1-33.5-75.1-75.1v-71.3c0-41.6,33.5-75.1,75.1-75.1c41.6,0,75.1,33.5,75.1,75.1
		v71.3C1013.3,270.8,979.8,304.2,938.2,304.2 M990.2,157.9c0-28.8-23.1-52-52-52c-28.9,0-51.9,23.2-51.9,52v71.3
		c0,28.9,23.1,52,51.9,52c28.9,0,52-23.1,52-52V157.9z"/>
	<path fill="#FF5000" d="M1198.2,300.4c-5.8,0-11.6-3.9-11.6-11.6v-131c0-28.8-23.1-52-52-52c-28.9,0-52,23.2-52,52v131
		c0,7.7-5.8,11.6-11.5,11.6c-5.9,0-11.6-3.9-11.6-11.6v-131c0-41.6,33.5-75.1,75.1-75.1c41.6,0,75.1,33.5,75.1,75.1v131
		C1209.7,296.5,1203.9,300.4,1198.2,300.4"/>
</g>
</svg>
