<?xml version="1.0" encoding="utf-8"?>
<!-- Generator: Adobe Illustrator 18.0.0, SVG Export Plug-In . SVG Version: 6.00 Build 0)  -->
<!DOCTYPE svg PUBLIC "-//W3C//DTD SVG 1.1//EN" "http://www.w3.org/Graphics/SVG/1.1/DTD/svg11.dtd">
<svg version="1.1" id="VECTORES" xmlns="http://www.w3.org/2000/svg" xmlns:xlink="http://www.w3.org/1999/xlink" x="0px" y="0px"
	 viewBox="0 0 100 100" enable-background="new 0 0 100 100" xml:space="preserve">
<path fill="#2CABE1" d="M50,16c-19.1,0-34.5,15.4-34.5,34.5S30.9,85,50,85s34.5-15.4,34.5-34.5S69.1,16,50,16z M69.1,41
	c0,0.4,0,0.8,0,1.2c0,12.8-9.4,27.5-26.5,27.5c-5.3,0-10.1-1.6-14.3-4.4c0.7,0.1,1.5,0.1,2.2,0.1c4.4,0,8.4-1.5,11.6-4.1
	c-4.1-0.1-7.5-2.9-8.7-6.7c0.6,0.1,1.1,0.2,1.7,0.2c0.9,0,1.5-0.1,2.3-0.3c-4.3-0.9-7.6-4.8-7.6-9.5c0,0,0-0.1,0-0.1
	c2,0.7,2.8,1.1,4.3,1.2c-2.5-1.7-4.1-4.7-4.1-8c0-1.8,0.5-3.4,1.3-4.9C36.2,39.1,43,43,50.7,43.3c-0.2-0.7-0.2-1.4-0.2-2.2
	c0-5.3,4.2-9.7,9.3-9.7c2.7,0,5.1,1.2,6.8,3.1c2.1-0.5,4.1-1.2,5.9-2.3c-0.7,2.3-2.2,4.1-4.1,5.3c1.9-0.2,3.7-0.7,5.4-1.5
	C72.5,38,71,39.7,69.1,41z"/>
</svg>
