<?xml version="1.0" encoding="utf-8"?>
<!-- Generator: Adobe Illustrator 17.1.0, SVG Export Plug-In . SVG Version: 6.00 Build 0)  -->
<!DOCTYPE svg PUBLIC "-//W3C//DTD SVG 1.1//EN" "http://www.w3.org/Graphics/SVG/1.1/DTD/svg11.dtd">
<svg version="1.1" id="Vectores" xmlns="http://www.w3.org/2000/svg" xmlns:xlink="http://www.w3.org/1999/xlink" x="0px" y="0px"
	 viewBox="0 0 500 300.8" enable-background="new 0 0 500 300.8" xml:space="preserve">
<g>
	<g>
		<path fill="#383838" d="M27.8,75.5L55.4,8.3l27.6,67.2L103.5,12h4.7L83.4,88.3L55.1,20L27,88.3L2.3,12H7L27.8,75.5z"/>
	</g>
	<g>
		<path fill="#383838" d="M111.1,63.6c-0.3,11.5,7.6,19.1,18.1,19.1c7.1,0,12.7-4.2,16-10.3l3.7,2.2c-4.1,7.8-11.4,12.3-20.3,12.3
			c-13.4,0-22-10.9-22-23.7c0-12.6,8.7-23.5,22-23.5c13.7,0,21.9,11,21.8,24H111.1z M146,59.5c-1.1-8.3-7.9-15.8-17.2-15.8
			c-9.2,0-16.9,7.3-17.6,15.8H146z"/>
	</g>
	<g>
		<path fill="#383838" d="M165.5,85.9h-4.4V5h4.4V85.9z"/>
	</g>
	<g>
		<path fill="#383838" d="M215.3,51.1c-4.3-4.7-9.5-7.4-16-7.4c-10.7,0-18.7,9.1-18.7,19.4c0,10.3,7.9,19.6,18.6,19.6
			c6.5,0,12.5-3.1,16.7-8.1v6c-4.6,4-10.4,6.3-16.5,6.3c-13.4,0-23.2-10.5-23.2-23.7c0-13.1,10-23.5,23.3-23.5
			c5.9,0,11.3,1.8,15.8,5.6V51.1z"/>
	</g>
	<g>
		<path fill="#383838" d="M270.2,63.2c0,13.4-10.5,23.6-23.8,23.6c-13,0-23.5-10.7-23.5-23.5c0-13,10.4-23.7,23.5-23.7
			C259.8,39.6,270.2,49.8,270.2,63.2z M227.3,63.3c0,10.3,8.1,19.4,18.8,19.4c11.1,0,19.7-8.4,19.7-19.4c0-11.2-8.5-19.6-19.7-19.6
			C235.3,43.7,227.3,52.8,227.3,63.3z"/>
	</g>
	<g>
		<path fill="#383838" d="M285.3,46.3h0.2c2.1-4.2,6.6-6.7,11.4-6.7c5.8,0,10.4,2.9,12.7,8.2c2.5-5.4,7.4-8.2,13.2-8.2
			c11.7,0,14,7.9,14,17.8v28.4h-4.4v-29c0-7-1.1-13.1-9.7-13.1c-9.4,0-11.7,8.2-11.7,16.1v26.1h-4.4V57.9c0-7.1-1.3-14.2-10.1-14.2
			c-9.5,0-11.3,9.9-11.3,17.2v24.9h-4.4V40.6h4.4V46.3z"/>
	</g>
	<g>
		<path fill="#383838" d="M352,63.6c-0.3,11.5,7.6,19.1,18.1,19.1c7.1,0,12.7-4.2,16-10.3l3.7,2.2c-4.1,7.8-11.4,12.3-20.3,12.3
			c-13.4,0-22-10.9-22-23.7c0-12.6,8.7-23.5,22-23.5c13.7,0,21.9,11,21.8,24H352z M386.9,59.5c-1.1-8.3-7.9-15.8-17.3-15.8
			c-9.2,0-16.9,7.3-17.6,15.8H386.9z"/>
	</g>
	<g>
		<path fill="#383838" d="M437.2,85.9h-4.4V44.7h-5v-4.1h5V24.4h4.4v16.2h7.9v4.1h-7.9V85.9z"/>
	</g>
	<g>
		<path fill="#383838" d="M495.7,63.2c0,13.4-10.5,23.6-23.8,23.6c-13,0-23.5-10.7-23.5-23.5c0-13,10.4-23.7,23.5-23.7
			C485.2,39.6,495.7,49.8,495.7,63.2z M452.8,63.3c0,10.3,8.1,19.4,18.8,19.4c11.1,0,19.7-8.4,19.7-19.4c0-11.2-8.5-19.6-19.7-19.6
			C460.8,43.7,452.8,52.8,452.8,63.3z"/>
	</g>
</g>
<g>
	<g>
		<path fill="#E6274C" d="M13.2,159.1h0.2c3.7-6.4,11.7-10,19-10c15.2,0,24.6,11.9,24.6,26.5s-9.4,25.6-24.4,25.6
			c-7.7,0-15.1-3.3-19.2-9.7h-0.2v37.8H8.3v-79.1h4.9V159.1z M12.9,176.1c0,11.7,7.9,20.4,19.9,20.4c11.7,0,19.4-9.8,19.4-21
			c0-11.4-7.5-22-19.7-22C19.8,153.6,12.9,164.1,12.9,176.1z"/>
	</g>
	<g>
		<path fill="#E6274C" d="M73.7,156.6h0.2c1.9-4.5,5.5-7.6,10.8-7.6c1.9,0,3.6,0.4,5.3,1.2l-2.6,4.3c-1.2-0.6-2.2-1-3.5-1
			c-10.9,0-10.3,13.6-10.3,21V200h-4.9v-49.9h4.9V156.6z"/>
	</g>
	<g>
		<path fill="#E6274C" d="M146.1,175.1c0,14.8-11.6,26-26.2,26c-14.4,0-25.9-11.8-25.9-25.9c0-14.4,11.4-26.1,25.9-26.1
			C134.6,149,146.1,160.3,146.1,175.1z M98.8,175.2c0,11.3,9,21.4,20.7,21.4c12.2,0,21.7-9.3,21.7-21.4c0-12.3-9.4-21.6-21.7-21.6
			C107.7,153.6,98.8,163.6,98.8,175.2z"/>
	</g>
</g>
<g>
	<g>
		<path fill="#383838" d="M227,132.6h-0.2l-28.4,70.1l-28.3-70.1h-0.2L155.9,200h-5l17.5-84.1l29.9,74.1l30-74.1l17.5,84.1h-5
			L227,132.6z"/>
	</g>
	<g>
		<path fill="#383838" d="M335.2,159.3c0,22.9-19.3,41.8-42.2,41.8s-42.2-18.9-42.2-41.8s19.2-41.8,42.2-41.8
			C315.9,117.5,335.2,136.4,335.2,159.3z M255.9,159.3c0,20.1,16.7,36.9,37,36.9c20.2,0,37-17,37-36.9c0-20.1-16.8-36.9-37-36.9
			C272.7,122.3,255.9,139.2,255.9,159.3z"/>
	</g>
	<g>
		<path fill="#383838" d="M427.5,159.3c0,22.9-19.3,41.8-42.2,41.8S343,182.2,343,159.3s19.2-41.8,42.2-41.8
			C408.1,117.5,427.5,136.4,427.5,159.3z M348.2,159.3c0,20.1,16.7,36.9,37,36.9c20.2,0,37-17,37-36.9c0-20.1-16.8-36.9-37-36.9
			C364.9,122.3,348.2,139.2,348.2,159.3z"/>
	</g>
	<g>
		<path fill="#383838" d="M440.1,118.6h14.7c11.9,0,21.3,1.9,30.2,10.3c8.5,8,13,18.9,13,30.6c0,11.2-4.3,21.9-12.5,29.8
			c-9,8.6-18.6,10.8-30.7,10.8h-14.7V118.6z M454.7,195.1c10.7,0,19.5-2.2,27.3-9.8c6.9-6.9,10.8-16.2,10.8-25.9
			c0-10.4-4.1-20.1-11.8-27.1c-7.8-7-16.2-8.9-26.4-8.9h-9.4v71.7H454.7z"/>
	</g>
</g>
<g>
	<polygon fill="#383838" points="309.7,166.1 274.3,166.1 274.3,159 277.3,159 277.3,163.1 306.7,163.1 306.7,159 309.7,159 	"/>
</g>
<g>
	<polygon fill="#383838" points="403.6,169.2 400.6,169.2 400.6,165.1 371.2,165.1 371.2,169.2 368.2,169.2 368.2,162.1 
		403.6,162.1 	"/>
</g>
<g>
	<circle fill="#383838" cx="285.1" cy="154.4" r="2"/>
</g>
<g>
	<circle fill="#383838" cx="297.1" cy="154.4" r="2"/>
</g>
<g>
	<circle fill="#383838" cx="379.1" cy="154.4" r="2"/>
</g>
<g>
	<circle fill="#383838" cx="391.1" cy="154.4" r="2"/>
</g>
<g opacity="0.5">
	<defs>
		<rect id="SVGID_1_" x="2.3" y="209" opacity="0.5" width="497.7" height="91.8"/>
	</defs>
	<clipPath id="SVGID_2_">
		<use xlink:href="#SVGID_1_"  overflow="visible"/>
	</clipPath>
	<defs>
		<filter id="Adobe_OpacityMaskFilter" filterUnits="userSpaceOnUse" x="8.3" y="180.9" width="489.7" height="113.3">
			
				<feColorMatrix  type="matrix" values="-1 0 0 0 1  0 -1 0 0 1  0 0 -1 0 1  0 0 0 1 0" color-interpolation-filters="sRGB" result="source"/>
		</filter>
	</defs>
	<mask maskUnits="userSpaceOnUse" x="8.3" y="180.9" width="489.7" height="113.3" id="SVGID_3_">
		<g filter="url(#Adobe_OpacityMaskFilter)">
			<linearGradient id="SVGID_4_" gradientUnits="userSpaceOnUse" x1="251.1538" y1="300.7989" x2="251.1538" y2="208.9731">
				<stop  offset="0.75" style="stop-color:#FFFFFF"/>
				<stop  offset="1" style="stop-color:#000000"/>
			</linearGradient>
			<rect x="2.3" y="209" clip-path="url(#SVGID_2_)" fill="url(#SVGID_4_)" width="497.7" height="91.8"/>
		</g>
	</mask>
	<g clip-path="url(#SVGID_2_)" mask="url(#SVGID_3_)">
		<g>
			<g>
				<path fill="#E6274C" d="M13.2,259.9H8.3v-79.1h4.9v37.8h0.2c4.1-6.4,11.6-9.7,19.2-9.7c15,0,24.4,11,24.4,25.6
					S47.6,261,32.4,261c-7.3,0-15.3-3.7-19-10h-0.2V259.9z M32.5,256.5c12.2,0,19.7-10.6,19.7-22c0-11.1-7.8-21-19.4-21
					c-12,0-19.9,8.7-19.9,20.4C12.9,245.9,19.8,256.5,32.5,256.5z"/>
			</g>
			<g>
				<path fill="#E6274C" d="M73.7,259.9h-4.9v-49.9h4.9v25.5c0,7.3-0.6,21,10.3,21c1.3,0,2.3-0.3,3.5-1l2.6,4.3
					c-1.7,0.8-3.3,1.2-5.3,1.2c-5.3,0-8.9-3-10.8-7.6h-0.2V259.9z"/>
			</g>
			<g>
				<path fill="#E6274C" d="M119.9,261c-14.5,0-25.9-11.8-25.9-26.1c0-14.1,11.6-25.9,25.9-25.9c14.7,0,26.2,11.2,26.2,26
					C146.1,249.8,134.6,261,119.9,261z M119.6,256.5c12.3,0,21.7-9.3,21.7-21.6c0-12.1-9.5-21.4-21.7-21.4
					c-11.8,0-20.7,10-20.7,21.4C98.8,246.4,107.7,256.5,119.6,256.5z"/>
			</g>
		</g>
		<g>
			<g>
				<path fill="#383838" d="M240.9,210.1h5l-17.5,84.1l-30-74.1l-29.9,74.1L151,210.1h5l13.9,67.4h0.2l28.3-70.1l28.4,70.1h0.2
					L240.9,210.1z"/>
			</g>
			<g>
				<path fill="#383838" d="M293,292.6c-23,0-42.2-18.9-42.2-41.8S270.1,209,293,209s42.2,18.9,42.2,41.8S315.9,292.6,293,292.6z
					 M293,287.7c20.2,0,37-16.8,37-36.9c0-20-16.8-36.9-37-36.9c-20.3,0-37,16.8-37,36.9C255.9,270.9,272.7,287.7,293,287.7z"/>
			</g>
			<g>
				<path fill="#383838" d="M385.2,292.6c-23,0-42.2-18.9-42.2-41.8s19.3-41.8,42.2-41.8s42.2,18.9,42.2,41.8
					S408.1,292.6,385.2,292.6z M385.2,287.7c20.2,0,37-16.8,37-36.9c0-20-16.8-36.9-37-36.9c-20.3,0-37,16.8-37,36.9
					C348.2,270.9,364.9,287.7,385.2,287.7z"/>
			</g>
			<g>
				<path fill="#383838" d="M440.1,210.1h14.7c12.1,0,21.7,2.2,30.7,10.8c8.2,7.9,12.5,18.6,12.5,29.8c0,11.7-4.4,22.6-13,30.6
					c-9,8.3-18.4,10.3-30.2,10.3h-14.7V210.1z M445.3,214.9v71.7h9.4c10.2,0,18.6-1.8,26.4-8.9c7.7-7,11.8-16.7,11.8-27.1
					c0-9.7-3.9-19-10.8-25.9c-7.8-7.7-16.6-9.8-27.3-9.8H445.3z"/>
			</g>
		</g>
		<g>
			<polygon fill="#383838" points="309.7,244 274.3,244 274.3,251.1 277.3,251.1 277.3,247 306.7,247 306.7,251.1 309.7,251.1 			
				"/>
		</g>
		<g>
			<polygon fill="#383838" points="403.6,240.9 400.6,240.9 400.6,245 371.2,245 371.2,240.9 368.2,240.9 368.2,248 403.6,248 			
				"/>
		</g>
		<g>
			<circle fill="#383838" cx="285.1" cy="255.7" r="2"/>
		</g>
		<g>
			<circle fill="#383838" cx="297.1" cy="255.7" r="2"/>
		</g>
		<g>
			<circle fill="#383838" cx="379.1" cy="255.7" r="2"/>
		</g>
		<g>
			<circle fill="#383838" cx="391.1" cy="255.7" r="2"/>
		</g>
	</g>
</g>
</svg>
