<?xml version="1.0" encoding="utf-8"?>
<!-- Generator: Adobe Illustrator 18.0.0, SVG Export Plug-In . SVG Version: 6.00 Build 0)  -->
<!DOCTYPE svg PUBLIC "-//W3C//DTD SVG 1.1//EN" "http://www.w3.org/Graphics/SVG/1.1/DTD/svg11.dtd">
<svg version="1.1" id="PostPone_Icon_Rounded" xmlns="http://www.w3.org/2000/svg" xmlns:xlink="http://www.w3.org/1999/xlink"
	 x="0px" y="0px" viewBox="0 0 69.7 69.7" enable-background="new 0 0 69.7 69.7" xml:space="preserve">
<g>
	<path fill="#FFFFFF" d="M50.6,3.3C49,2.5,47,3.1,46.2,4.7c-0.8,1.6-0.2,3.6,1.4,4.4c9.6,4.9,15.6,14.6,15.6,25.4
		c0,15.7-12.7,28.4-28.4,28.4S6.5,50.1,6.5,34.4c0-3.8,0.8-7.6,2.2-11.1c0.7-1.6-0.1-3.6-1.7-4.3c-1.7-0.7-3.6,0.1-4.3,1.7
		C0.9,25.1,0,29.7,0,34.4c0,19.2,15.6,34.9,34.9,34.9s34.9-15.6,34.9-34.9C69.7,21.2,62.4,9.2,50.6,3.3z"/>
	<circle fill="#FFFFFF" cx="35.6" cy="6.2" r="5.8"/>
	<path fill="#FFFFFF" d="M17.7,21.9c1.6,2.3,3.4,4.6,5.2,6.9c0.9,1.2,1.7,2.4,2.5,3.6c0.8,1.2,1.6,2.4,2.6,3.4
		c1.9,2,4.2,3.3,6.3,4.4c0,0,4.5,0.7,5.7,0c1.9-1.1,1.2-5.4,0.7-6.4c-1-2.1-2.4-4.3-4.4-6.3c-1-1-2.2-1.8-3.4-2.6
		c-1.2-0.8-2.5-1.6-3.6-2.5c-2.3-1.8-4.7-3.6-6.9-5.2c-2.2-1.6-4.4-3.1-6.2-4.4c-3.7-2.5-6.2-4.1-6.2-4.1L9.1,9.5
		c0,0,1.6,2.5,4.1,6.2C14.5,17.5,16,19.6,17.7,21.9z"/>
</g>
</svg>
