<?xml version="1.0" encoding="utf-8"?>
<!-- Generator: Adobe Illustrator 18.0.0, SVG Export Plug-In . SVG Version: 6.00 Build 0)  -->
<!DOCTYPE svg PUBLIC "-//W3C//DTD SVG 1.1//EN" "http://www.w3.org/Graphics/SVG/1.1/DTD/svg11.dtd">
<svg version="1.1" id="VECTORES" xmlns="http://www.w3.org/2000/svg" xmlns:xlink="http://www.w3.org/1999/xlink" x="0px" y="0px"
	 viewBox="0 0 100 100" enable-background="new 0 0 100 100" xml:space="preserve">
<path fill="#E6274C" d="M63.3,55.2c-1.9-1.3-5.4-4.5-5.4-6.4c0-2.2,0.6-3.3,4-5.9c3.4-2.7,5.8-6.4,5.8-10.8c0-5.2-2.3-10.2-6.6-11.9
	h6.5l4.6-3.3H51.5c-9.2,0-17.9,7-17.9,15.1c0,8.3,6.3,15,15.7,15c0.7,0,1.3,0,1.9-0.1c-0.6,1.2-1,2.5-1,3.8c0,2.3,1.2,4.2,2.8,5.7
	c-1.2,0-2.3,0-3.6,0c-11.5,0-20.3,7.3-20.3,14.9c0,7.4,9.7,12.1,21.1,12.1c13.1,0,20.3-7.4,20.3-14.9C70.5,62.6,68.7,59,63.3,55.2z
	 M52.2,44.8c-5.3-0.2-10.4-5.9-11.3-12.9c-0.9-7,2.6-12.3,8-12.2c5.3,0.2,10.4,5.8,11.3,12.7C61.1,39.5,57.6,45,52.2,44.8z
	 M50.2,80.1c-7.9,0-13.6-5-13.6-11c0-5.9,7.1-10.8,15-10.7c1.8,0,3.6,0.3,5.1,0.8c4.3,3,7.4,4.7,8.2,8.1c0.2,0.7,0.3,1.4,0.3,2.1
	C65.2,75.4,61.3,80.1,50.2,80.1z"/>
</svg>
