<?xml version="1.0" encoding="utf-8"?>
<!-- Generator: Adobe Illustrator 18.0.0, SVG Export Plug-In . SVG Version: 6.00 Build 0)  -->
<!DOCTYPE svg PUBLIC "-//W3C//DTD SVG 1.1//EN" "http://www.w3.org/Graphics/SVG/1.1/DTD/svg11.dtd">
<svg version="1.1" id="VECTORES" xmlns="http://www.w3.org/2000/svg" xmlns:xlink="http://www.w3.org/1999/xlink" x="0px" y="0px"
	 viewBox="0 0 100 100" enable-background="new 0 0 100 100" xml:space="preserve">
<g>
	<g>
		<path fill="#E6274C" d="M87.1,27.4c-2.7,1.2-5.5,2-8.5,2.4c3.1-1.9,5.4-4.9,6.5-8.5c-2.9,1.7-6,3-9.4,3.7c-2.7-3-6.5-4.9-10.8-4.9
			c-8.2,0-14.8,6.9-14.8,15.4c0,1.2,0.1,2.4,0.4,3.5c-12.3-0.6-23.2-6.7-30.5-16c-1.3,2.3-2,4.9-2,7.7c0,5.3,2.6,10,6.6,12.8
			c-2.4-0.1-4.7-0.7-6.7-1.9c0,0.1,0,0.1,0,0.2c0,7.4,5.1,13.6,11.9,15.1c-1.2,0.3-2.5,0.5-3.9,0.5c-0.9,0-1.9-0.1-2.8-0.3
			C25,63.2,30.5,67.7,37,67.7c-5.1,4.1-11.4,6.6-18.4,6.6c-1.2,0-2.4-0.1-3.5-0.2c6.5,4.4,14.3,6.9,22.7,6.9
			c27.2,0,42.1-23.4,42.1-43.7c0-0.6,0-1.3,0-2C82.7,33.2,85.2,30.5,87.1,27.4z"/>
	</g>
</g>
</svg>
