<?xml version="1.0" encoding="utf-8"?>
<!-- Generator: Adobe Illustrator 18.0.0, SVG Export Plug-In . SVG Version: 6.00 Build 0)  -->
<!DOCTYPE svg PUBLIC "-//W3C//DTD SVG 1.1//EN" "http://www.w3.org/Graphics/SVG/1.1/DTD/svg11.dtd">
<svg version="1.1" xmlns="http://www.w3.org/2000/svg" xmlns:xlink="http://www.w3.org/1999/xlink" x="0px" y="0px"
	 viewBox="0 0 366.5 148" enable-background="new 0 0 366.5 148" xml:space="preserve">
<g id="VECTORES">
	<g id="Tests_Image_VECTOR">
		<g>
			<path fill="#116F93" d="M101.5,148H15c-8.3,0-15-6.7-15-15V15C0,6.7,6.7,0,15,0h60.8l40.7,42.8V133
				C116.5,141.3,109.8,148,101.5,148z M15,6c-5,0-9,4-9,9v118c0,5,4,9,9,9h86.5c5,0,9-4,9-9V45.2L73.2,6H15z"/>
		</g>
		<g>
			<path fill="#116F93" d="M112.2,45.7H80.3c-4.4,0-8-3.6-8-8V3.9c0-1.2,0.7-2.3,1.9-2.8c1.1-0.5,2.4-0.2,3.3,0.7l36.9,38.8
				c0.8,0.9,1.1,2.1,0.6,3.3C114.5,45,113.4,45.7,112.2,45.7z M78.3,11.4v26.3c0,1.1,0.9,2,2,2h24.9L78.3,11.4z"/>
		</g>
		<g>
			<path fill="#E6274C" d="M351.5,148H265c-8.3,0-15-6.7-15-15V15c0-8.3,6.7-15,15-15h60.8l40.7,42.8V133
				C366.5,141.3,359.8,148,351.5,148z M265,6c-5,0-9,4-9,9v118c0,5,4,9,9,9h86.5c5,0,9-4,9-9V45.2L323.2,6H265z"/>
		</g>
		<g>
			<path fill="#E6274C" d="M362.2,45.7h-31.9c-4.4,0-8-3.6-8-8V3.9c0-1.2,0.7-2.3,1.9-2.8c1.1-0.5,2.4-0.2,3.3,0.7l36.9,38.8
				c0.8,0.9,1.1,2.1,0.6,3.3C364.5,45,363.4,45.7,362.2,45.7z M328.3,11.4v26.3c0,1.1,0.9,2,2,2h24.9L328.3,11.4z"/>
		</g>
		<g>
			<rect x="24.3" y="55" fill="#116F93" width="68" height="6"/>
		</g>
		<g>
			<rect x="24.3" y="69" fill="#116F93" width="68" height="6"/>
		</g>
		<g>
			<rect x="24.3" y="83" fill="#116F93" width="68" height="6"/>
		</g>
		<g>
			<rect x="24.3" y="97" fill="#116F93" width="68" height="6"/>
		</g>
		<g>
			<rect x="24.3" y="111" fill="#116F93" width="68" height="6"/>
		</g>
		<polygon fill="#E6274C" points="162.2,55.1 209.2,82.3 162.2,109.4 172.2,82.3 		"/>
		<g>
			<path fill="#E6274C" d="M269.7,69.4h6.3l4.9,9.7l5.3-9.7h6.4l-8.8,15.1v12.8h-5.4V84.5L269.7,69.4z"/>
			<path fill="#E6274C" d="M306.5,98.1c-8.5,0-13.8-6.5-13.8-14.7c0-8.3,5.5-14.7,13.8-14.7c8.3,0,13.8,6.4,13.8,14.7
				C320.3,91.6,315,98.1,306.5,98.1z M306.5,74.1c-5.1,0-8.2,4.6-8.2,9.1c0,4.3,2.1,9.6,8.2,9.6s8.2-5.3,8.2-9.6
				C314.7,78.6,311.7,74.1,306.5,74.1z"/>
			<path fill="#E6274C" d="M322.8,69.4h5.4V85c0,3.4,0.3,8.3,4.9,8.3s4.9-4.8,4.9-8.3V69.4h5.4v16.7c0,6.8-2.9,12-10.4,12
				s-10.4-5.1-10.4-12V69.4z"/>
		</g>
	</g>
</g>
<g id="PSD_Converted" display="none">
	<g id="Bell_xA0_Image_1_" display="inline">
	</g>
	<g id="smiley3_xA0_Image_1_" display="inline">
	</g>
	<g id="smiley2_xA0_Image_1_" display="inline">
	</g>
	<g id="smiley1_xA0_Image_1_" display="inline">
	</g>
	<g id="Texto_1_" display="inline">
	</g>
	<g id="line_xA0_Image_1_" display="inline" opacity="0.4">
	</g>
	<g id="Logo_ProMood_xA0_Image_1_" display="inline">
	</g>
	<g id="background_xA0_Image_1_" display="inline">
	</g>
	<g id="Polygons_Tile_xA0_Image_1_" display="inline">
	</g>
	<g id="Inner_Shadow_xA0_Image_1_" display="inline">
	</g>
	<defs>
		<filter id="Adobe_OpacityMaskFilter" filterUnits="userSpaceOnUse" x="543" y="-2363.3" width="640" height="3992">
			<feColorMatrix  type="matrix" values="1 0 0 0 0  0 1 0 0 0  0 0 1 0 0  0 0 0 1 0"/>
		</filter>
	</defs>
	<mask maskUnits="userSpaceOnUse" x="543" y="-2363.3" width="640" height="3992" id="Tests_xA0_Image_2_" display="inline">
	</mask>
	<g id="Tests_xA0_Image_1_" display="inline" mask="url(#Tests_xA0_Image_2_)">
	</g>
</g>
</svg>
