<?xml version="1.0" encoding="utf-8"?>
<!-- Generator: Adobe Illustrator 18.0.0, SVG Export Plug-In . SVG Version: 6.00 Build 0)  -->
<!DOCTYPE svg PUBLIC "-//W3C//DTD SVG 1.1//EN" "http://www.w3.org/Graphics/SVG/1.1/DTD/svg11.dtd">
<svg version="1.1" id="Layer_1" xmlns="http://www.w3.org/2000/svg" xmlns:xlink="http://www.w3.org/1999/xlink" x="0px" y="0px"
	 viewBox="0 0 69.7 69.7" enable-background="new 0 0 69.7 69.7" xml:space="preserve">
<g>
	<g>
		<path fill="#FFFFFF" d="M34.9,0C15.6,0,0,15.6,0,34.9c0,19.3,15.6,34.9,34.9,34.9s34.9-15.6,34.9-34.9C69.7,15.6,54.1,0,34.9,0z
			 M34.9,62.4c-15.2,0-27.5-12.3-27.5-27.5c0-15.2,12.3-27.5,27.5-27.5c15.2,0,27.5,12.3,27.5,27.5C62.4,50.1,50.1,62.4,34.9,62.4z"
			/>
	</g>
	<g>
		<path fill="#FFFFFF" d="M32.1,41.5c0-4.1,0.4-5.9,4.4-8.7c1.7-1.2,2.7-2.5,2.7-4.2c0-3.3-2.4-4.2-4.1-4.2c-3.8,0-4.4,2.9-4.6,4.9
			v0h-6c0-7.4,5.6-10,10.3-10c2.6,0,10.9,0.7,10.9,9.1c0,3.5-1.9,5.5-5.2,7.9c-1.8,1.3-2.6,2.1-2.6,5.2H32.1z M38.1,50.4h-6.2v-6
			h6.2V50.4z"/>
	</g>
</g>
</svg>
