<?xml version="1.0" encoding="utf-8"?>
<!-- Generator: Adobe Illustrator 18.0.0, SVG Export Plug-In . SVG Version: 6.00 Build 0)  -->
<!DOCTYPE svg PUBLIC "-//W3C//DTD SVG 1.1//EN" "http://www.w3.org/Graphics/SVG/1.1/DTD/svg11.dtd">
<svg version="1.1" id="Close-2" xmlns="http://www.w3.org/2000/svg" xmlns:xlink="http://www.w3.org/1999/xlink" x="0px" y="0px"
	 viewBox="0 0 69.7 69.7" enable-background="new 0 0 69.7 69.7" xml:space="preserve">
<g>
	<polygon fill="#FFFFFF" points="43.2,21.6 34.9,29.9 26.5,21.6 21.6,26.5 29.9,34.9 21.6,43.2 26.5,48.2 34.9,39.8 43.2,48.2 
		48.2,43.2 39.8,34.9 48.2,26.5 	"/>
	<path fill="#FFFFFF" d="M34.9,4.4C18,4.4,4.4,18,4.4,34.9c0,16.8,13.7,30.5,30.5,30.5s30.5-13.7,30.5-30.5
		C65.4,18,51.7,4.4,34.9,4.4z M34.9,59c-13.3,0-24.1-10.8-24.1-24.1c0-13.3,10.8-24.1,24.1-24.1C48.2,10.8,59,21.6,59,34.9
		C59,48.2,48.2,59,34.9,59z"/>
</g>
</svg>
