<?xml version="1.0" encoding="utf-8"?>
<!-- Generator: Adobe Illustrator 18.0.0, SVG Export Plug-In . SVG Version: 6.00 Build 0)  -->
<!DOCTYPE svg PUBLIC "-//W3C//DTD SVG 1.1//EN" "http://www.w3.org/Graphics/SVG/1.1/DTD/svg11.dtd">
<svg version="1.1" xmlns="http://www.w3.org/2000/svg" xmlns:xlink="http://www.w3.org/1999/xlink" x="0px" y="0px"
	 viewBox="0 0 165.8 125.5" enable-background="new 0 0 165.8 125.5" xml:space="preserve">
<g id="Layer_1">
	<path fill="#FFFFFF" d="M166.1,14.9c-0.4,0.4-1.2,1.1-1.2,1.1L60.3,121.2c0,0-4.3,3.8-7.2,4.6c-0.6,0-1.3,0-1.9,0
		c-2.9-0.9-5.2-2.8-7.4-4.9c-10.5-10.5-21-21.1-31.5-31.6c-4-4-8-7.9-11.9-11.9c0-0.1,0-0.2,0-0.3c0.4-0.3,0.8-0.6,1.1-0.9
		c4-4,8-7.9,11.9-11.9c0.4-0.4,0.6-0.8,0.9-1.2C27,75.8,39.5,88.3,52.1,100.9c0.4-0.4,0.7-0.6,1-0.9c32.8-33,65.5-66,98.3-99.1
		c0.2-0.2,0.3-0.4,0.5-0.6c0.1,0,0.2,0,0.3,0c4.6,4.8,9.2,9.6,13.8,14.4C166.1,14.7,166.1,14.8,166.1,14.9z"/>
	<path fill="#FFFFFF" d="M166.1,14.6c-4.6-4.8-9.2-9.6-13.8-14.4c4.6,0,9.2,0,13.8,0C166.1,5.1,166.1,9.9,166.1,14.6z"/>
</g>
<g id="Layer_2">
</g>
</svg>
