<?xml version="1.0" encoding="utf-8"?>
<!-- Generator: Adobe Illustrator 17.1.0, SVG Export Plug-In . SVG Version: 6.00 Build 0)  -->
<svg version="1.2" baseProfile="tiny" id="Vectores"
	 xmlns="http://www.w3.org/2000/svg" xmlns:xlink="http://www.w3.org/1999/xlink" x="0px" y="0px" viewBox="0 0 489.7 113.3"
	 xml:space="preserve">
<g>
	<g>
		<g>
			<path fill="#E6274C" d="M4.9,43.2h0.2c3.7-6.4,11.7-10,19-10c15.2,0,24.6,11.9,24.6,26.5s-9.4,25.6-24.4,25.6
				c-7.7,0-15.1-3.3-19.2-9.7H4.9v37.8H0V34.2h4.9V43.2z M4.5,60.3c0,11.7,7.9,20.4,19.9,20.4c11.7,0,19.4-9.8,19.4-21
				c0-11.4-7.5-22-19.7-22C11.4,37.7,4.5,48.3,4.5,60.3z"/>
		</g>
		<g>
			<path fill="#E6274C" d="M65.3,40.7h0.2c1.9-4.5,5.5-7.6,10.8-7.6c1.9,0,3.6,0.4,5.3,1.2l-2.6,4.3c-1.2-0.6-2.2-1-3.5-1
				c-10.9,0-10.3,13.6-10.3,21v25.5h-4.9V34.2h4.9V40.7z"/>
		</g>
		<g>
			<path fill="#E6274C" d="M137.8,59.2c0,14.8-11.6,26-26.2,26c-14.4,0-25.9-11.8-25.9-25.9c0-14.4,11.4-26.1,25.9-26.1
				C126.3,33.2,137.8,44.4,137.8,59.2z M90.5,59.3c0,11.3,9,21.4,20.7,21.4c12.2,0,21.7-9.3,21.7-21.4c0-12.3-9.4-21.6-21.7-21.6
				C99.4,37.7,90.5,47.7,90.5,59.3z"/>
		</g>
	</g>
	<g>
		<g>
			<path fill="#383838" d="M218.7,16.7h-0.2l-28.4,70.1l-28.3-70.1h-0.2l-13.9,67.4h-5L160.2,0l29.9,74.1l30-74.1l17.5,84.1h-5
				L218.7,16.7z"/>
		</g>
		<g>
			<path fill="#383838" d="M326.9,43.4c0,22.9-19.3,41.8-42.2,41.8s-42.2-18.9-42.2-41.8s19.2-41.8,42.2-41.8
				C307.6,1.6,326.9,20.5,326.9,43.4z M247.6,43.4c0,20.1,16.7,36.9,37,36.9c20.2,0,37-17,37-36.9c0-20.1-16.8-36.9-37-36.9
				C264.4,6.5,247.6,23.3,247.6,43.4z"/>
		</g>
		<g>
			<path fill="#383838" d="M419.1,43.4c0,22.9-19.3,41.8-42.2,41.8s-42.2-18.9-42.2-41.8s19.2-41.8,42.2-41.8
				C399.8,1.6,419.1,20.5,419.1,43.4z M339.9,43.4c0,20.1,16.7,36.9,37,36.9c20.2,0,37-17,37-36.9c0-20.1-16.8-36.9-37-36.9
				C356.6,6.5,339.9,23.3,339.9,43.4z"/>
		</g>
		<g>
			<path fill="#383838" d="M431.8,2.7h14.7c11.9,0,21.3,1.9,30.2,10.3c8.5,8,13,18.9,13,30.6c0,11.2-4.3,21.9-12.5,29.8
				c-9,8.6-18.6,10.8-30.7,10.8h-14.7V2.7z M446.3,79.3c10.7,0,19.5-2.2,27.3-9.8c6.9-6.9,10.8-16.2,10.8-25.9
				c0-10.4-4.1-20.1-11.8-27.1c-7.8-7-16.2-8.9-26.4-8.9H437v71.7H446.3z"/>
		</g>
	</g>
	<g>
		<polygon fill="#383838" points="301.4,50.2 266,50.2 266,43.1 269,43.1 269,47.2 298.4,47.2 298.4,43.1 301.4,43.1 		"/>
	</g>
	<g>
		<polygon fill="#383838" points="395.3,53.3 392.3,53.3 392.3,49.2 362.9,49.2 362.9,53.3 359.9,53.3 359.9,46.2 395.3,46.2 		"/>
	</g>
	<g>
		<circle fill="#383838" cx="276.8" cy="38.5" r="2"/>
	</g>
	<g>
		<circle fill="#383838" cx="288.8" cy="38.5" r="2"/>
	</g>
	<g>
		<circle fill="#383838" cx="370.8" cy="38.5" r="2"/>
	</g>
	<g>
		<circle fill="#383838" cx="382.8" cy="38.5" r="2"/>
	</g>
</g>
</svg>
