<?xml version="1.0" encoding="utf-8"?>
<!-- Generator: Adobe Illustrator 17.1.0, SVG Export Plug-In . SVG Version: 6.00 Build 0)  -->
<svg version="1.2" baseProfile="tiny" xmlns="http://www.w3.org/2000/svg" xmlns:xlink="http://www.w3.org/1999/xlink" x="0px"
	 y="0px" viewBox="0 0 123.8 84.6" xml:space="preserve">
<g id="Layer_1" display="none">
	<image display="inline" width="1366" height="768" xlink:href="140BB48A.jpg"  transform="matrix(1 0 0 1 -487.7273 -436.6356)">
	</image>
</g>
<g id="Layer_3">
	<g>
		<path fill="#E6274C" d="M54.4,22.5L72.1,35l-1.7-13.3c-2.2-0.7-4.5-1.1-6.9-1.1C60.2,20.6,57.2,21.3,54.4,22.5z"/>
		<path fill="#E6274C" d="M72.6,22.5l3,21.2l8.4-10.6C81.5,28.4,77.5,24.6,72.6,22.5z"/>
		<path fill="#E6274C" d="M72.1,52.3l13.7-2.7c0.5-1.9,0.8-3.9,0.8-5.9c0-3.1-0.6-6-1.7-8.7L72.1,52.3z"/>
		<path fill="#E6274C" d="M74.1,64.2c5.1-2.7,9.1-7.2,11.1-12.7l-21.7,4.4L74.1,64.2z"/>
		<path fill="#E6274C" d="M71.6,65.3l-16.5-13l1.3,13.4c2.2,0.7,4.5,1.1,7,1.1C66.3,66.8,69.1,66.2,71.6,65.3z"/>
		<path fill="#E6274C" d="M54.4,64.9l-3-21.3l-8.2,11.2C45.7,59.3,49.7,62.9,54.4,64.9z"/>
		<path fill="#E6274C" d="M40.4,43.7c0,3.3,0.7,6.4,1.9,9.3l12.9-18l-14.1,2.9C40.6,39.8,40.4,41.7,40.4,43.7z"/>
		<path fill="#E6274C" d="M52.8,23.2C48,25.8,44.1,29.9,42.1,35l21.4-3.7L52.8,23.2z"/>
	</g>
	<g>
		<path fill="#007096" d="M88.1,40.9c0.1,0.9,0.2,1.8,0.2,2.8c0,0.8,0,1.5-0.1,2.3h3c0.1-0.7,0.1-1.5,0.1-2.3c0-0.9,0-1.8-0.1-2.8
			H88.1z"/>
		<path fill="#007096" d="M61.3,15.9v3c0.7-0.1,1.4-0.1,2.1-0.1c1,0,1.9,0.1,2.9,0.2v-3c-0.9-0.1-1.9-0.1-2.9-0.1
			C62.7,15.8,62,15.9,61.3,15.9z"/>
		<path fill="#007096" d="M87,35.9h3.1c-2.6-9.1-9.8-16.3-18.9-19v3.1C78.7,22.6,84.6,28.5,87,35.9z"/>
		<path fill="#007096" d="M36.6,35.9h3.1c2.5-7.7,8.7-13.7,16.5-16.1v-3.1C46.8,19.2,39.3,26.6,36.6,35.9z"/>
		<path fill="#007096" d="M71.3,67.3v3.1c9.3-2.7,16.5-10.1,19-19.5h-3.1C84.8,58.6,78.8,64.7,71.3,67.3z"/>
		<path fill="#007096" d="M61.3,68.5v3c0.7,0.1,1.4,0.1,2.1,0.1c1,0,1.9-0.1,2.9-0.1v-3c-0.9,0.1-1.9,0.2-2.9,0.2
			C62.7,68.6,62,68.5,61.3,68.5z"/>
		<path fill="#007096" d="M39.6,50.9h-3.1c2.6,9.6,10.2,17.2,19.8,19.7v-3.1C48.3,65.1,42,58.9,39.6,50.9z"/>
		<path fill="#007096" d="M38.5,43.7c0-0.9,0.1-1.8,0.2-2.8h-3c-0.1,0.9-0.1,1.8-0.1,2.8c0,0.8,0,1.5,0.1,2.3h3
			C38.5,45.2,38.5,44.5,38.5,43.7z"/>
		<polygon fill="#007096" points="0,11.8 6.3,11.8 6.3,6.1 12.5,6.1 12.5,0 0,0 		"/>
		<polygon fill="#007096" points="6.3,72.8 0,72.8 0,84.6 12.5,84.6 12.5,78.5 6.3,78.5 		"/>
		<polygon fill="#007096" points="117.5,78.5 111.3,78.5 111.3,84.6 123.8,84.6 123.8,72.8 117.5,72.8 		"/>
		<polygon fill="#007096" points="111.3,0 111.3,6.1 117.5,6.1 117.5,11.8 123.8,11.8 123.8,0 		"/>
		<rect x="100.6" y="41.7" fill="#007096" width="3.3" height="3.3"/>
		<rect x="20.9" y="41.7" fill="#007096" width="3.3" height="3.3"/>
	</g>
</g>
</svg>
