<?xml version="1.0" encoding="utf-8"?>
<!-- Generator: Adobe Illustrator 18.0.0, SVG Export Plug-In . SVG Version: 6.00 Build 0)  -->
<!DOCTYPE svg PUBLIC "-//W3C//DTD SVG 1.1//EN" "http://www.w3.org/Graphics/SVG/1.1/DTD/svg11.dtd">
<svg version="1.1" id="VECTORES" xmlns="http://www.w3.org/2000/svg" xmlns:xlink="http://www.w3.org/1999/xlink" x="0px" y="0px"
	 viewBox="0 0 100 100" enable-background="new 0 0 100 100" xml:space="preserve">
<path fill="#E6274C" d="M85,28c0-6.6-5.4-12-12-12H28c-6.6,0-12,5.4-12,12v45c0,6.6,5.4,12,12,12h45c6.6,0,12-5.4,12-12V28z
	 M69.9,51H64c0,9,0,21,0,21h-9c0,0,0-12,0-21h-4v-8h4v-4.9c0-3.5,1.9-9,9.2-9l6.8,0V36c0,0-4.4,0-5.2,0C65,36,64,36.8,64,38.5V43
	h6.7L69.9,51z"/>
</svg>
